HIERARCHY
ROOT Hips
{
    OFFSET 0.000000 0.000000 0.000000
    CHANNELS 6 Xposition Yposition Zposition Zrotation Yrotation Xrotation
    JOINT LeftUpLeg
    {
        OFFSET 1.363060 -1.794630 0.839290
        CHANNELS 3 Zrotation Yrotation Xrotation
        JOINT LeftLeg
        {
            OFFSET 2.448110 -6.726130 0.000000
            CHANNELS 3 Zrotation Yrotation Xrotation
            JOINT LeftFoot
            {
                OFFSET 2.562200 -7.039589 0.000000
                CHANNELS 3 Zrotation Yrotation Xrotation
                JOINT LeftToeBase
                {
                    OFFSET 0.157640 -0.433110 2.322550
                    CHANNELS 3 Zrotation Yrotation Xrotation
                    End Site
                    {
                        OFFSET 0.000000 0.000000 0.000000
                    }
                }
            }
        }
    }
    JOINT RightUpLeg
    {
        OFFSET -1.305520 -1.794630 0.839290
        CHANNELS 3 Zrotation Yrotation Xrotation
        JOINT RightLeg
        {
            OFFSET -2.542530 -6.985549 0.000000
            CHANNELS 3 Zrotation Yrotation Xrotation
            JOINT RightFoot
            {
                OFFSET -2.568260 -7.056230 0.000000
                CHANNELS 3 Zrotation Yrotation Xrotation
                JOINT RightToeBase
                {
                    OFFSET -0.164730 -0.452590 2.363150
                    CHANNELS 3 Zrotation Yrotation Xrotation
                    End Site
                    {
                        OFFSET 0.000000 0.000000 0.000000
                    }
                }
            }
        }
    }
    JOINT Spine
    {
        OFFSET 0.028270 2.035590 -0.193380
        CHANNELS 3 Zrotation Yrotation Xrotation
        JOINT Spine1
        {
            OFFSET 0.056720 2.048850 -0.042750
            CHANNELS 3 Zrotation Yrotation Xrotation
            JOINT Neck1
            {
                OFFSET -0.054170 1.746240 0.172020
                CHANNELS 3 Zrotation Yrotation Xrotation
                JOINT Head
                {
                    OFFSET 0.104070 1.761360 -0.123970
                    CHANNELS 3 Zrotation Yrotation Xrotation
                    End Site
                    {
                        OFFSET 0.000000 0.000000 0.000000
                    }
                }
            }
            JOINT LeftShoulder
            {
                OFFSET 0.000000 0.000000 0.000000
                CHANNELS 3 Zrotation Yrotation Xrotation
                JOINT LeftArm
                {
                    OFFSET 3.362410 1.200890 -0.311210
                    CHANNELS 3 Zrotation Yrotation Xrotation
                    JOINT LeftForeArm
                    {
                        OFFSET 4.983000 -0.000000 -0.000000
                        CHANNELS 3 Zrotation Yrotation Xrotation
                        JOINT LeftHand
                        {
                            OFFSET 3.483560 -0.000000 -0.000000
                            CHANNELS 3 Zrotation Yrotation Xrotation
                            End Site
                            {
                                OFFSET 0.000000 0.000000 0.000000
                            }
                        }
                    }
                }
            }
            JOINT RightShoulder
            {
                OFFSET 0.000000 0.000000 0.000000
                CHANNELS 3 Zrotation Yrotation Xrotation
                JOINT RightArm
                {
                    OFFSET -3.136600 1.374050 -0.404650
                    CHANNELS 3 Zrotation Yrotation Xrotation
                    JOINT RightForeArm
                    {
                        OFFSET -5.241900 -0.000000 -0.000000
                        CHANNELS 3 Zrotation Yrotation Xrotation
                        JOINT RightHand
                        {
                            OFFSET -3.444170 -0.000000 -0.000000
                            CHANNELS 3 Zrotation Yrotation Xrotation
                            End Site
                            {
                                OFFSET 0.000000 0.000000 0.000000
                            }
                        }
                    }
                }
            }
        }
    }
}
MOTION
Frames: 15
Frame Time: 0.016667
21.084812 17.693142 -2.624904 0.184903 0.470906 8.500039 -11.958672 -0.956480 -10.849757 -0.287089 -12.207014 21.433823 -21.235893 22.411583 -2.970397 -0.297897 -1.276750 -0.996891 9.894857 3.686973 -12.280210 -7.784342 -18.519878 15.204591 12.771947 3.866396 8.400021 -0.021195 -0.067099 -0.414048 3.000205 -0.624595 -1.427310 -2.101667 -0.386923 -0.460403 -4.192626 -4.458286 23.873699 -11.219260 2.029158 13.315814 -11.576882 -5.185319 2.315542 -74.624039 -8.950249 51.840137 4.246283 -2.814959 -5.003803 1.127485 -1.274557 -4.703705 13.450217 7.697176 4.023575 72.080177 12.671591 44.285206 -2.530025 3.699978 -0.627848 -1.517199 0.242747 -0.492585 
21.074743 17.688499 -2.610790 0.159859 0.601530 8.669471 -11.808234 -2.045094 -10.255347 0.407237 -10.611759 20.059183 -21.063740 21.973627 -2.075602 -0.302039 -1.245343 -1.051909 9.829289 4.807216 -11.782819 -7.708103 -19.336283 14.675545 13.084728 3.352622 8.238132 -0.047270 -0.154936 -0.541569 3.036909 -0.755943 -1.571658 -2.160585 -0.455514 -0.422267 -4.176219 -4.328293 23.831408 -11.057836 2.115343 13.211139 -11.629941 -5.345102 2.343118 -74.164215 -9.193407 51.413559 3.610882 -2.628930 -3.566481 0.694328 -1.451442 -3.338015 13.420132 7.793694 4.060739 71.877411 12.574661 43.805424 -2.381962 4.063154 0.402494 -2.458512 0.113407 0.522447 
21.064240 17.686792 -2.589226 0.145414 0.739839 8.874459 -11.755718 -2.591563 -9.927513 0.915969 -9.700305 19.060570 -20.812569 21.586840 -1.325014 -0.292654 -0.989880 -1.190645 9.839076 5.370789 -11.577476 -7.937683 -20.589806 14.093002 12.901253 3.966335 8.735516 -0.026982 -0.085380 -0.564300 3.054318 -0.915877 -1.722909 -2.191625 -0.535898 -0.471841 -4.244326 -4.238076 23.575123 -10.925685 2.154920 13.539718 -11.555417 -5.490901 2.204810 -73.890823 -9.141139 51.307678 3.194613 -2.460973 -2.461975 0.390614 -1.412288 -2.274263 13.344767 7.837798 4.112086 71.650993 12.440926 43.229233 -2.088434 4.579999 1.232345 -2.860459 0.143898 1.318352 
21.058607 17.686197 -2.570154 0.114985 0.879027 9.073746 -11.721075 -2.738789 -9.857615 1.294725 -9.091149 18.395700 -20.603537 21.098864 -0.657345 -0.279885 -1.039235 -1.061972 9.871196 5.510543 -11.568700 -8.001278 -21.197021 13.770303 12.748239 4.347445 8.928268 -0.042100 -0.137681 -0.488132 3.096735 -1.019752 -1.875205 -2.257550 -0.589511 -0.455749 -4.244159 -4.124869 23.491484 -10.670120 2.201156 13.314678 -11.576811 -5.636053 2.288058 -73.542709 -9.396700 51.476452 3.125877 -2.368114 -1.946240 0.543689 -1.295659 -1.771657 13.280297 7.957718 4.047987 71.470444 12.153546 43.433598 -2.047260 4.966994 1.453606 -2.494306 0.207167 1.549146 
21.050953 17.689617 -2.554423 0.068605 1.014669 9.320281 -11.609097 -2.800933 -10.002270 1.200704 -9.456752 18.421419 -20.837126 21.364727 -0.907290 -0.278308 -1.426455 -0.732812 9.933571 5.387525 -11.794715 -7.789161 -20.622702 13.928260 12.696597 3.926344 8.473320 -0.124654 -0.419085 -0.304525 3.115439 -1.125936 -1.972552 -2.258752 -0.642275 -0.478402 -4.242840 -3.989134 23.361710 -10.525249 2.307686 13.173792 -11.456569 -5.802165 2.298942 -73.356438 -9.617879 51.433788 3.091150 -2.416038 -1.454117 0.751038 -1.274089 -1.285969 13.173560 8.086068 3.977379 71.230690 11.963224 43.258575 -1.896670 5.580342 1.635408 -2.752352 0.439635 1.705555 
21.045692 17.696154 -2.536352 0.044337 1.137399 9.555275 -11.591084 -2.501111 -10.418126 0.928890 -10.336545 18.957277 -20.901091 21.610029 -1.440538 -0.325747 -1.261979 -1.206846 10.050941 4.815394 -12.256691 -7.765915 -19.947443 14.239998 12.685650 3.845910 8.289658 -0.131062 -0.440881 -0.332846 3.151040 -1.166472 -1.997525 -2.298955 -0.658488 -0.555692 -4.205164 -3.950333 23.391146 -10.660201 2.310854 12.446565 -11.273964 -5.992874 2.294000 -73.250641 -9.816244 51.500866 3.209795 -2.547030 -1.364811 1.139591 -1.096504 -1.183836 12.941109 8.265711 3.823854 71.034683 11.634605 42.713654 -1.774785 6.253122 2.148253 -3.321051 0.693726 2.180596 
21.039848 17.702280 -2.519917 0.026098 1.260584 9.758437 -11.630873 -2.044778 -11.036991 0.327569 -11.991771 20.195444 -21.057741 22.274708 -2.657439 -0.291692 -1.186934 -1.026026 10.160233 4.228667 -12.830592 -7.541504 -18.366108 15.102879 13.110332 2.889870 7.398400 -0.133120 -0.448341 -0.540741 3.150851 -1.307635 -1.933075 -2.279101 -0.728086 -0.576175 -4.265930 -3.797451 23.178356 -10.460821 2.380332 12.331951 -11.072471 -6.045964 2.179162 -73.211967 -10.048889 51.514339 3.407817 -2.789380 -1.470204 1.515602 -0.997853 -1.262653 12.823296 8.231131 3.879355 70.648239 11.801519 42.001900 -1.272286 6.852194 3.359877 -2.558382 0.734496 3.336570 
21.034735 17.709377 -2.510536 -0.001485 1.372425 9.954662 -11.755062 -1.365151 -11.911988 -0.585192 -14.357703 22.096460 -21.335917 23.342112 -4.404586 -0.326843 -1.354978 -1.139462 10.237568 3.848838 -13.453856 -6.787159 -15.305896 16.646460 14.235609 0.219690 5.228901 -0.139448 -0.470179 -0.610746 3.158775 -1.403427 -1.783451 -2.260427 -0.772643 -0.584272 -4.289428 -3.722788 22.952654 -10.303912 2.431129 12.320443 -10.881226 -6.228343 2.088192 -73.154076 -10.336330 51.415005 3.655369 -3.190119 -1.773011 1.780998 -0.981705 -1.522219 12.690923 8.376588 3.918373 70.254982 11.931176 41.636250 -0.964110 7.359108 4.136271 -2.482055 0.873789 4.058059 
21.029165 17.714945 -2.506797 -0.006261 1.432090 10.090177 -11.679233 -1.409250 -12.773105 -2.343907 -16.683353 24.791903 -21.525597 25.109274 -7.032843 -0.271122 -1.028183 -1.009438 10.382280 3.198635 -14.336411 -5.931499 -11.698978 18.771173 15.438036 -2.452324 2.479945 -0.139446 -0.470284 -0.647865 3.107645 -1.414226 -1.457221 -2.288805 -0.769909 -0.602924 -4.217432 -3.695137 22.917015 -10.367777 2.418991 11.739010 -10.732962 -6.486414 2.076349 -72.947021 -10.817694 50.914455 3.859100 -3.781087 -2.181174 2.047127 -1.066918 -1.881497 12.511580 8.614620 3.853825 69.888573 12.064179 40.874859 -0.665999 7.912570 4.989345 -3.267485 1.128978 4.807593 
21.020891 17.716650 -2.504100 0.014244 1.506578 10.221117 -11.831459 -0.796861 -14.122224 -5.573493 -21.473637 29.712540 -22.112572 28.346956 -11.721084 -0.235748 -0.880198 -0.881803 10.574788 2.419086 -15.550359 -3.158863 -3.590770 23.078070 18.360964 -9.040993 -4.059466 -0.147839 -0.499410 -0.734153 3.031813 -1.398696 -1.064982 -2.301726 -0.752001 -0.629324 -4.192617 -3.681297 22.767242 -10.168710 2.346520 11.534639 -10.545775 -6.804224 2.072121 -72.822563 -11.294021 50.682701 4.152970 -4.424672 -2.610754 2.164727 -1.155533 -2.236401 12.332879 8.919368 3.759509 69.627663 12.048919 40.896519 -0.744483 8.324574 5.259915 -3.508731 1.321681 5.071336 
21.013182 17.714172 -2.504634 0.013144 1.528526 10.316593 -11.844633 -0.807497 -15.403075 -9.730373 -25.507776 35.198193 -22.163012 32.283112 -16.232229 -0.321763 -0.547948 -1.729464 10.750976 1.878284 -16.901302 0.927963 4.830678 28.755581 20.730129 -15.628557 -12.103883 -0.131281 -0.442425 -0.713217 2.958293 -1.406750 -0.548496 -2.263005 -0.745474 -0.666685 -4.176338 -3.694852 22.685360 -10.271998 2.274395 11.106361 -10.260725 -7.073195 1.887499 -72.834740 -11.684442 50.353325 4.411234 -5.172638 -2.852081 2.186186 -1.336077 -2.393932 12.132143 9.135640 3.829238 69.292404 12.400474 40.333149 -0.592807 8.622718 5.819129 -3.786432 1.429457 5.577471 
21.006012 17.697657 -2.513574 -0.004396 1.548444 10.491175 -11.598868 -1.344108 -16.908817 -15.454178 -29.017626 41.938057 -22.455217 36.871006 -21.516960 -0.110830 -1.054206 0.134546 10.850777 1.495082 -18.566383 8.165625 14.692988 36.968945 22.088612 -24.388844 -22.064196 -0.152990 -0.515874 -0.457012 2.892883 -1.366621 -0.066059 -2.261670 -0.716060 -0.634411 -4.056150 -3.710928 22.556007 -10.173477 2.159312 10.702847 -10.027013 -7.467513 1.874307 -72.660393 -12.346486 49.719410 4.637708 -6.046348 -3.063511 2.389229 -1.448357 -2.512394 11.896695 9.493239 3.845078 69.030647 12.720420 40.254971 -0.651079 8.905157 5.629217 -3.885391 1.364644 5.398346 
21.001474 17.667030 -2.525535 -0.071608 1.624778 10.714061 -11.403006 -1.788900 -18.608843 -21.560574 -31.517498 48.948627 -22.410002 41.541832 -26.087875 -0.086160 -1.419297 0.636856 10.744839 1.866969 -20.068745 15.962358 21.032511 45.109264 22.716549 -32.226673 -30.202803 -0.089799 -0.300986 -0.258572 2.894996 -1.375574 0.459590 -2.220158 -0.713231 -0.649005 -4.024063 -3.733752 22.566683 -10.148688 2.005380 9.840834 -9.689676 -7.786575 1.733577 -72.701492 -12.947257 49.633415 5.032853 -6.915444 -3.228853 2.631553 -1.542206 -2.544013 11.649600 9.743332 3.911953 68.718697 13.144485 40.154591 -0.701505 9.062520 5.592991 -3.677943 1.292209 5.389647 
21.002195 17.615309 -2.539456 -0.132610 1.834002 10.910895 -11.186925 -2.260953 -20.257240 -25.375345 -31.471804 53.540039 -21.740570 43.732494 -28.552916 -0.094054 -1.601954 0.750469 10.563929 2.202108 -21.651779 24.427000 25.132313 53.642616 23.587303 -39.523540 -37.682369 -0.099346 -0.333282 -0.284129 3.007622 -1.408071 0.988474 -2.248878 -0.720598 -0.673441 -3.952440 -3.879155 22.486275 -10.076686 1.812779 9.587101 -9.390074 -8.252112 1.649763 -72.689804 -13.561511 49.445908 5.311646 -7.854495 -3.371684 2.504447 -1.662714 -2.540551 11.324514 10.169629 3.902638 68.440178 13.407982 40.359818 -0.944266 9.263008 5.139585 -4.004708 1.417755 4.966630 
21.002874 17.540443 -2.552223 -0.203769 1.968373 11.077128 -10.934678 -2.607539 -21.916479 -27.697948 -30.136383 56.634064 -21.006552 44.483593 -30.190723 -0.091464 -1.166961 0.370038 10.446132 2.187277 -23.326998 30.133959 26.037369 59.672993 24.012867 -43.214161 -42.370045 -0.087926 -0.294604 -0.274332 3.059468 -1.385646 1.549133 -2.246263 -0.702425 -0.650811 -3.844931 -4.012623 22.286472 -9.937935 1.594288 9.514618 -9.043590 -8.598377 1.648368 -72.723068 -14.392967 49.590778 5.758066 -8.799342 -3.615035 2.576221 -1.753401 -2.591851 10.999810 10.458108 3.899319 68.176399 13.818613 40.589493 -1.192190 9.377516 4.718362 -4.045085 1.473925 4.596266 
